<?xml version="1.0" encoding="utf-8"?>
<!-- Generator: Adobe Illustrator 25.0.1, SVG Export Plug-In . SVG Version: 6.00 Build 0)  -->
<svg version="1.1" id="Layer_1" xmlns="http://www.w3.org/2000/svg" xmlns:xlink="http://www.w3.org/1999/xlink" x="0px" y="0px"
	 viewBox="0 0 150 150" style="enable-background:new 0 0 150 150;" xml:space="preserve">
<style type="text/css">
	.st0{fill:#FFFFFF;stroke:#000000;stroke-miterlimit:10;}
</style>
<g>
	<path class="st0" d="M84.7,74.3c0,22.7-18.3,41.2-40.9,41.2S2.9,97.1,2.9,74.3s18.3-41.2,40.9-41.2S84.7,51.6,84.7,74.3
		 M129.5,74.3c0,21.4-9.2,38.8-20.5,38.8S88.6,95.7,88.6,74.3s9.2-38.8,20.5-38.8S129.5,52.9,129.5,74.3 M147.9,74.3
		c0,19.2-3.2,34.7-7.2,34.7s-7.2-15.6-7.2-34.7s3.2-34.7,7.2-34.7S147.9,55.1,147.9,74.3"/>
</g>
</svg>
