<?xml version="1.0" encoding="utf-8"?>
<!-- Generator: Adobe Illustrator 25.0.1, SVG Export Plug-In . SVG Version: 6.00 Build 0)  -->
<svg version="1.1" id="Layer_1" xmlns="http://www.w3.org/2000/svg" xmlns:xlink="http://www.w3.org/1999/xlink" x="0px" y="0px"
	 viewBox="0 0 150 150" style="enable-background:new 0 0 150 150;" xml:space="preserve">
<g>
	<path d="M84.6,72.9c0,23.5-18.9,42.6-42.3,42.6S0,96.4,0,72.9s18.9-42.6,42.3-42.6S84.6,49.4,84.6,72.9 M131,72.9
		c0,22.1-9.5,40.1-21.2,40.1S88.7,95,88.7,72.9s9.5-40.1,21.2-40.1S131,50.8,131,72.9 M150,72.9c0,19.8-3.3,35.9-7.4,35.9
		s-7.4-16.1-7.4-35.9s3.3-35.9,7.4-35.9C146.7,37,150,53.1,150,72.9"/>
</g>
</svg>
